<svg xmlns="http://www.w3.org/2000/svg" viewBox="0 0 240 240"><g fill="none" fill-rule="evenodd" stroke="none" stroke-linecap="square" stroke-linejoin="bevel" stroke-opacity="0" stroke-width="0"><g transform="translate(31.952 52.513) scale(2.22398)"><circle fill="#000" cx="36" cy="36" r="36"/><path d="M44.84 52.944c1.153 1.89 1.313 1.604 2 2.32.605.631.976.772 1.73 1.256.694.445 2.075 1.072 2.937 1.278 2.87.686 6.39.486 8.213-.857 1.591-1.17 2.427-2.377 2.602-3.97.065-.592-.37-1.857-.92-2.43-1.02-1.058-1.404-1.157-3.037-1.03-1.94.157-3.196 1.405-5.94 2.285-3.424 1.096-7.36 2.154-7.585 1.151Zm-1.02.131c-2.654-1.671-6.471-4.735-7.534-5.676a772.38 772.38 0 0 1-2.305-2.046c-3.284-2.923-.99-.94-2.134-1.737-1.749-1.22-3.81-.69-5.63.04-.853.34-1.558 1.089-1.887 2.043-.414 1.206-.32 2.648-.208 2.97.095.268.197.928.834 1.731.903 1.139 2.433 2.112 4.257 2.72 3.276 1.092 11.877 2.685 14.607-.045Z" fill="#fff"/></g><g transform="rotate(16.694 81.607 89.27) scale(2.22398)"><ellipse fill="#2f8cd3" cx="55.71" cy="18.57" rx="55.71" ry="18.57" transform="translate(0 24.63)"/><path d="M19.992 21.18h72v15.579l.012.043.06.31.036.313.012.315-.012.315-.036.312-.06.31-.084.31-.106.305-.13.304-.152.3-.174.3-.197.296-.218.293-.239.29-.261.287-.28.284-.302.28-.32.279-.341.274-.363.271-.381.267-.4.264-.418.26-.437.256-.455.252-.474.247-.49.244-.508.24-.525.235-.542.23-.558.226-.574.222-.59.216-.605.21-.62.208-.636.202-.65.196-.664.192-.678.186-.692.18-.706.175-.72.17-.731.163-.743.158-.756.152-.768.145-.78.14-.79.133-.802.124-.812.121-.823.114-.833.107-.843.1-.853.094-.862.087-.87.08-.88.071-.887.066-.894.058-.903.05-.91.044-.92.035-.925.028-.93.02-.94.012-.943.004-.944-.004-.938-.012-.929-.02-.925-.028-.92-.035-.91-.044-.905-.05-.896-.058-.887-.066-.88-.073-.87-.08-.862-.086-.853-.094-.843-.1-.833-.108-.823-.114-.812-.12-.802-.128-.79-.133-.78-.14-.768-.145-.756-.152-.743-.158-.732-.163-.72-.17-.704-.175-.692-.18-.678-.187-.665-.192-.65-.196-.634-.202-.62-.207-.605-.212-.59-.216-.574-.22-.558-.227-.542-.23-.525-.235-.508-.24-.49-.244-.474-.247-.455-.252-.437-.256-.418-.26-.4-.264-.382-.267-.362-.27-.342-.275-.322-.278-.302-.28-.28-.285-.26-.287-.24-.29-.219-.294-.197-.296-.174-.299-.152-.3-.13-.305-.106-.306-.084-.308-.06-.31-.036-.313-.012-.314h-.12V21.18" fill="#2279bb"/><path d="M19.992 17.52h72V33.1l.012.042.06.31.036.313.012.315-.012.315-.036.312-.06.31-.084.31-.106.305-.13.304-.152.3-.174.3-.197.296-.218.293-.239.29-.261.287-.28.284-.302.28-.32.279-.341.274-.363.271-.381.267-.4.264-.418.26-.437.256-.455.252-.474.247-.49.244-.508.24-.525.235-.542.23-.558.226-.574.222-.59.216-.605.21-.62.208-.636.202-.65.196-.664.192-.678.186-.692.18-.706.175-.72.17-.731.163-.743.158-.756.152-.768.145-.78.14-.79.133-.802.127-.812.121-.823.114-.833.107-.843.1-.853.094-.862.087-.87.08-.88.072-.887.066-.894.058-.903.05-.91.044-.92.035-.925.028-.93.02-.94.012-.943.004-.944-.004-.938-.012-.929-.02-.925-.028-.92-.035-.91-.047-.905-.05-.896-.058-.887-.066-.88-.072-.87-.08-.862-.086-.853-.094-.843-.1-.833-.108-.823-.114-.812-.12-.802-.128-.79-.133-.78-.14-.768-.145-.756-.152-.743-.158-.732-.163-.72-.17-.704-.175-.692-.18-.678-.186-.665-.192-.65-.196-.634-.202-.62-.207-.605-.212-.59-.216-.574-.222-.558-.226-.542-.23-.525-.235-.508-.24-.49-.244-.474-.247-.455-.252-.437-.256-.418-.26-.4-.264-.382-.267-.362-.27-.342-.275-.322-.278-.302-.28-.28-.285-.26-.288-.24-.29-.219-.294-.197-.295-.174-.299-.152-.3-.13-.305-.106-.306-.084-.308-.06-.31-.036-.313-.012-.315h-.12V17.52" fill="#1a384e"/><path d="M19.98 12.24h72v15.58l.012.042.06.31.036.313.012.315-.012.315-.036.312-.06.31-.084.31-.106.305-.13.304-.152.3-.174.3-.197.296-.218.293-.239.29-.261.287-.28.284-.302.28-.322.279-.342.274-.362.271-.381.267-.4.264-.418.26-.437.256-.455.252-.474.247-.49.244-.508.24-.525.235-.542.23-.558.226-.574.222-.59.216-.605.21-.62.208-.636.202-.65.196-.664.192-.678.186-.692.18-.705.175-.72.17-.731.163-.743.158-.756.152-.768.145-.78.14-.79.133-.802.127-.812.121-.823.114-.833.111-.843.101-.853.094-.862.087-.87.08-.88.072-.887.066-.896.058-.903.05-.914.044-.92.036-.924.028-.93.02-.94.012-.943.004-.945-.004-.938-.012-.93-.02-.926-.028-.92-.035-.91-.045-.902-.05-.896-.058-.887-.066-.88-.07-.87-.08-.862-.087-.853-.094-.843-.099-.833-.108-.823-.114-.812-.12-.802-.128-.79-.133-.78-.14-.768-.145-.756-.15-.743-.159-.732-.163-.72-.17-.704-.175-.692-.18-.678-.186-.665-.192-.651-.196-.635-.202-.62-.207-.605-.212-.59-.216-.573-.222-.558-.226-.542-.23-.525-.235-.508-.24-.49-.244-.474-.247-.455-.252-.437-.256-.42-.26-.4-.264-.381-.267-.362-.27-.342-.275-.322-.278-.302-.28-.28-.286-.26-.287-.24-.29-.22-.294-.198-.295-.174-.299-.153-.3-.13-.305-.106-.306-.083-.308-.06-.31-.036-.313-.01-.315h-.12V12.24" fill="#2279bb"/><ellipse fill="#2f8cd3" cx="36" cy="12" rx="36" ry="12" transform="translate(19.98)"/></g></g></svg>